<svg xmlns="http://www.w3.org/2000/svg" viewBox="0 0 86.56 11.02"><defs><style>.cls-1{fill:#fff;}</style></defs><title>Asset 1</title><g id="Layer_2" data-name="Layer 2"><g id="Layer_1-2" data-name="Layer 1"><path class="cls-1" d="M3.06,0l-.7,3.36h0A2.35,2.35,0,0,1,4.2,2.52,1.83,1.83,0,0,1,6,4.57,3.88,3.88,0,0,1,2.09,8.65C.7,8.65,0,8.05,0,7A5.3,5.3,0,0,1,.13,5.94L1.32,0ZM1.85,6a2.25,2.25,0,0,0-.06.65.6.6,0,0,0,.66.65c1,0,1.71-1.39,1.71-2.41,0-.58-.24-1-.77-1S2.16,4.55,2,5.56Z"/><path class="cls-1" d="M6.44,8.52,8.08,0H9.8L8.17,8.52Z"/><path class="cls-1" d="M14.53,8.18a5,5,0,0,1-2.2.47A2.28,2.28,0,0,1,9.8,6.16a3.53,3.53,0,0,1,3.42-3.64,1.81,1.81,0,0,1,2,1.76c0,1.49-1.45,2-3.81,2a1.28,1.28,0,0,0,.19.6,1.35,1.35,0,0,0,1.13.45,3.67,3.67,0,0,0,1.64-.37ZM13,3.78A1.46,1.46,0,0,0,11.62,5c1.35,0,2-.17,2-.72C13.64,4,13.4,3.78,13,3.78Z"/><path class="cls-1" d="M15.16,10.89l1.14-6c.13-.7.26-1.72.33-2.32h1.55l-.11.9h0a2.39,2.39,0,0,1,1.89-1c1.27,0,1.89,1,1.89,2.23a3.64,3.64,0,0,1-3.4,3.9,2.3,2.3,0,0,1-1.08-.24h0l-.47,2.48Zm2.47-3.83a1.13,1.13,0,0,0,.79.28c.92,0,1.64-1.31,1.64-2.46,0-.47-.2-1-.75-1s-1.25.72-1.47,1.87Z"/><path class="cls-1" d="M24.37,1.32V2.71h1.51v.8H24.37V6.64c0,.72.2,1.13.79,1.13a1.88,1.88,0,0,0,.61-.07l.05.8a2.63,2.63,0,0,1-.93.15,1.49,1.49,0,0,1-1.14-.45,2.25,2.25,0,0,1-.41-1.52V3.51h-.9v-.8h.9V1.63Z"/><path class="cls-1" d="M27.59,5.8a1.85,1.85,0,0,0,2,2,3.8,3.8,0,0,0,1.61-.3l.19.76a4.88,4.88,0,0,1-1.95.37,2.71,2.71,0,0,1-2.85-2.94c0-1.75,1-3.12,2.72-3.12a2.44,2.44,0,0,1,2.4,2.72,3,3,0,0,1,0,.49Zm3.09-.75a1.49,1.49,0,0,0-1.46-1.7,1.72,1.72,0,0,0-1.62,1.7Z"/><path class="cls-1" d="M37.15,8.31a4.13,4.13,0,0,1-1.67.34,2.76,2.76,0,0,1-2.89-3,3,3,0,0,1,3.12-3.09,3.38,3.38,0,0,1,1.46.31l-.24.81a2.45,2.45,0,0,0-1.22-.28,2,2,0,0,0-2.05,2.19,2,2,0,0,0,2,2.18A3.07,3.07,0,0,0,37,7.52Z"/><path class="cls-1" d="M38.39,0h1V3.63h0a2,2,0,0,1,.75-.75,2.18,2.18,0,0,1,1.08-.29c.78,0,2,.48,2,2.47V8.52H42.27V5.18c0-.93-.34-1.71-1.34-1.71a1.53,1.53,0,0,0-1.41,1,1.35,1.35,0,0,0-.08.5V8.52h-1Z"/><path class="cls-1" d="M45.05,4.28c0-.61,0-1.09,0-1.57h.94l.05,1h0a2.15,2.15,0,0,1,1.92-1.08c.8,0,2.05.48,2.05,2.47V8.52H48.93V5.17c0-.94-.34-1.72-1.34-1.72a1.55,1.55,0,0,0-1.42,1.08A1.87,1.87,0,0,0,46.1,5v3.5H45.05Z"/><path class="cls-1" d="M57,5.56a2.85,2.85,0,0,1-2.89,3.09,2.76,2.76,0,0,1-2.78-3,2.84,2.84,0,0,1,2.88-3.07A2.74,2.74,0,0,1,57,5.56Zm-4.59.06c0,1.28.72,2.24,1.75,2.24s1.76-1,1.76-2.26c0-1-.49-2.22-1.74-2.22S52.37,4.53,52.37,5.62Z"/><path class="cls-1" d="M58.3,0h1.05V8.52H58.3Z"/><path class="cls-1" d="M66.38,5.56a2.85,2.85,0,0,1-2.89,3.09,2.76,2.76,0,0,1-2.78-3,2.84,2.84,0,0,1,2.88-3.07A2.74,2.74,0,0,1,66.38,5.56Zm-4.59.06c0,1.28.72,2.24,1.75,2.24s1.76-1,1.76-2.26c0-1-.49-2.22-1.74-2.22S61.79,4.53,61.79,5.62Z"/><path class="cls-1" d="M72.68,7.66a3.43,3.43,0,0,1-.83,2.67,3.2,3.2,0,0,1-2.12.69,3.76,3.76,0,0,1-1.93-.48l.26-.81a3.22,3.22,0,0,0,1.71.46c1.08,0,1.87-.56,1.87-2V7.52h0a2,2,0,0,1-1.84,1A2.59,2.59,0,0,1,67.3,5.66a2.77,2.77,0,0,1,2.62-3.07,1.93,1.93,0,0,1,1.81,1h0l0-.88h.94c0,.41,0,.89,0,1.58ZM71.62,5a1.7,1.7,0,0,0-.05-.47,1.52,1.52,0,0,0-1.48-1.12c-1,0-1.73.85-1.73,2.19,0,1.14.59,2.09,1.72,2.09a1.51,1.51,0,0,0,1.46-1.08A1.87,1.87,0,0,0,71.62,6Z"/><path class="cls-1" d="M75.53,1.08a.64.64,0,0,1-.68.65.62.62,0,0,1-.63-.65.66.66,0,1,1,1.31,0ZM74.35,8.52V2.71h1.06V8.52Z"/><path class="cls-1" d="M77.75,5.8a1.85,1.85,0,0,0,2,2,3.71,3.71,0,0,0,1.6-.3l.2.76a4.88,4.88,0,0,1-2,.37,2.71,2.71,0,0,1-2.85-2.94c0-1.75,1-3.12,2.72-3.12a2.44,2.44,0,0,1,2.4,2.72,2.08,2.08,0,0,1,0,.49Zm3.09-.75a1.49,1.49,0,0,0-1.46-1.7,1.72,1.72,0,0,0-1.62,1.7Z"/><path class="cls-1" d="M83,7.45a3,3,0,0,0,1.4.41c.76,0,1.12-.38,1.12-.87s-.3-.77-1.07-1c-1.06-.39-1.55-1-1.55-1.65a1.8,1.8,0,0,1,2-1.7A2.74,2.74,0,0,1,86.35,3l-.25.77a2.21,2.21,0,0,0-1.19-.35c-.62,0-1,.36-1,.79s.34.7,1.09,1c1,.37,1.52.87,1.52,1.74,0,1-.8,1.75-2.15,1.75a3.34,3.34,0,0,1-1.64-.41Z"/></g></g></svg>
