<?xml version="1.0" encoding="utf-8"?>
<!-- Generator: Adobe Illustrator 23.1.1, SVG Export Plug-In . SVG Version: 6.00 Build 0)  -->
<svg version="1.1" id="Layer_1" xmlns="http://www.w3.org/2000/svg" xmlns:xlink="http://www.w3.org/1999/xlink" x="0px" y="0px"
	 viewBox="0 0 18.3 11" style="enable-background:new 0 0 18.3 11;" xml:space="preserve">
<style type="text/css">
	.st0{fill:#231F20;}
	.st1{fill:none;stroke:#231F20;stroke-width:0.3;stroke-miterlimit:10;}
	.st2{fill:#FFFFFF;stroke:#231F20;stroke-width:0.3;stroke-miterlimit:10;}
</style>
<g>
	<g id="Layer_1-2">
		<g id="draft_1">
			<g id="b">
				<path class="st0" d="M0,8.6V0h1.5v8.7L0,8.6L0,8.6z"/>
				<line class="st1" x1="2.2" y1="2.4" x2="2.2" y2="8.6"/>
				<path class="st0" d="M3,6.8V2.6h1.4v4.2H3z"/>
				<path class="st2" d="M1.5,7.8V3.4H3v4.4H1.5z"/>
			</g>
			<path class="st0" d="M5.6,8.6V0h1.5v8.7L5.6,8.6L5.6,8.6z"/>
			<path class="st0" d="M9.7,5.8v0.5c0,0.4,0,0.8,0.2,1.1c0.1,0.3,0.3,0.4,0.6,0.4c0.1,0,0.3,0,0.4-0.1c0.1-0.1,0.2-0.2,0.2-0.3
				c0.1-0.1,0.1-0.2,0.1-0.4c0-0.1,0-0.3,0-0.4h1.4c0,0.6-0.2,1.2-0.6,1.6c-0.4,0.5-1,0.6-1.6,0.6c-0.4,0-0.8-0.1-1.2-0.2
				C8.9,8.4,8.7,8.2,8.5,7.9c-0.2-0.3-0.3-0.7-0.3-1c0-0.4,0-0.8,0-1.2c0-0.4,0-0.8,0.1-1.2c0-0.3,0.1-0.7,0.3-1
				C8.8,3.2,9,2.9,9.3,2.8c0.4-0.2,0.8-0.3,1.2-0.3s0.8,0.1,1.2,0.3C12,3,12.2,3.2,12.3,3.5s0.2,0.7,0.2,1.1s0,0.8,0,1.3L9.7,5.8z
				 M11.2,5V4.5c0-0.1,0-0.3,0-0.4c0-0.2-0.1-0.4-0.2-0.5c-0.1-0.1-0.3-0.2-0.5-0.2S10.1,3.5,10,3.6C9.9,3.8,9.8,4,9.8,4.2v0.4
				c0,0.1,0,0.2,0,0.4L11.2,5z"/>
			<path class="st0" d="M18.3,5.6c0,0.4,0,0.8,0,1.2c0,0.4-0.1,0.7-0.3,1c-0.1,0.3-0.3,0.5-0.5,0.7c-0.3,0.2-0.6,0.3-0.9,0.3
				s-0.5,0-0.8-0.1c-0.2-0.1-0.4-0.3-0.6-0.5V11h-1.5V3.8c0-0.1,0-0.3,0-0.5s0-0.3,0-0.5V2.6h1.4v0.6c0.2-0.3,0.4-0.5,0.7-0.6
				c0.3-0.1,0.5-0.2,0.8-0.2s0.6,0.1,0.9,0.2c0.3,0.2,0.5,0.5,0.6,0.7c0.1,0.3,0.2,0.7,0.2,1C18.3,4.7,18.3,5.1,18.3,5.6z M16.8,5.5
				c0-0.3,0-0.6,0-0.8c0-0.2,0-0.5-0.1-0.7c0-0.2-0.1-0.3-0.2-0.5c-0.1-0.1-0.3-0.2-0.5-0.2c-0.2,0-0.4,0.1-0.5,0.2
				c-0.1,0.2-0.2,0.3-0.2,0.5c-0.1,0.2-0.1,0.5-0.1,0.7c0,0.3,0,0.5,0,0.8s0,0.5,0,0.8c0,0.2,0.1,0.4,0.1,0.7c0,0.2,0.1,0.3,0.2,0.5
				c0.2,0.2,0.3,0.3,0.5,0.3c0.2,0,0.3-0.1,0.4-0.2c0.1-0.2,0.2-0.4,0.2-0.6c0.1-0.2,0.1-0.5,0.1-0.7C16.8,6,16.8,5.7,16.8,5.5z"/>
		</g>
	</g>
</g>
</svg>
