<svg xmlns="http://www.w3.org/2000/svg" viewBox="0 0 40.52 11.14"><defs><style>.cls-1{fill:#231f20;}.cls-2{fill:none;}.cls-2,.cls-3{stroke:#231f20;stroke-miterlimit:10;stroke-width:0.3px;}.cls-3{fill:#fff;}</style></defs><title>draft 1</title><g id="Layer_2" data-name="Layer 2"><g id="Layer_1-2" data-name="Layer 1"><g id="draft_1" data-name="draft 1"><g id="b"><path class="cls-1" d="M0,8.83V.16H1.49V8.83Z"/><line class="cls-2" x1="2.23" y1="2.64" x2="2.23" y2="8.83"/><path class="cls-1" d="M3,7V2.78H4.45V7Z"/><path class="cls-3" d="M1.49,8V3.6H3V8Z"/></g><path class="cls-1" d="M5.63,8.83V.16H7.12V8.83Z"/><path class="cls-1" d="M9.7,6v.54a2.87,2.87,0,0,0,.16,1.13.59.59,0,0,0,.6.35.63.63,0,0,0,.38-.1.73.73,0,0,0,.22-.27.94.94,0,0,0,.11-.38,3,3,0,0,0,0-.42h1.41a2.4,2.4,0,0,1-.55,1.64A2.19,2.19,0,0,1,10.45,9a2.64,2.64,0,0,1-1.24-.25,1.6,1.6,0,0,1-.67-.67,2.79,2.79,0,0,1-.28-1c0-.38,0-.78,0-1.2a9.49,9.49,0,0,1,.07-1.21,3,3,0,0,1,.31-1,1.86,1.86,0,0,1,.7-.72,2.48,2.48,0,0,1,1.24-.27,2.18,2.18,0,0,1,1.22.28,1.59,1.59,0,0,1,.63.73,3.17,3.17,0,0,1,.23,1.07c0,.4,0,.82,0,1.26Zm1.48-.83V4.74a3,3,0,0,0,0-.42A1.18,1.18,0,0,0,11,3.81a.55.55,0,0,0-.48-.2.59.59,0,0,0-.52.22,1.36,1.36,0,0,0-.22.57l0,.36c0,.11,0,.24,0,.39Z"/><path class="cls-1" d="M18.26,5.76c0,.42,0,.83,0,1.22A3.65,3.65,0,0,1,18,8a1.6,1.6,0,0,1-.53.69,1.48,1.48,0,0,1-.94.26,2.07,2.07,0,0,1-.77-.14,1.3,1.3,0,0,1-.56-.51v2.84H13.7V4c0-.14,0-.29,0-.46s0-.32,0-.46V2.78h1.45v.65a1.56,1.56,0,0,1,.68-.6,1.84,1.84,0,0,1,.83-.19,1.51,1.51,0,0,1,.91.24,1.44,1.44,0,0,1,.49.66,3.17,3.17,0,0,1,.19,1Q18.26,5.1,18.26,5.76ZM16.78,5.7c0-.29,0-.55,0-.8a3.06,3.06,0,0,0-.1-.67,1.06,1.06,0,0,0-.23-.45A.57.57,0,0,0,16,3.61a.57.57,0,0,0-.47.21,1.25,1.25,0,0,0-.25.53,3.22,3.22,0,0,0-.1.73c0,.27,0,.54,0,.81s0,.54,0,.8a3,3,0,0,0,.12.66,1.19,1.19,0,0,0,.25.46A.59.59,0,0,0,16,8a.51.51,0,0,0,.42-.23,1.66,1.66,0,0,0,.23-.57,4.26,4.26,0,0,0,.1-.74C16.77,6.18,16.78,5.93,16.78,5.7Z"/><path class="cls-1" d="M19.43,5.38V3.62c0-.2,0-.47,0-.81a4.27,4.27,0,0,1,.1-.78c.05-.18.11-.4.19-.65A1.66,1.66,0,0,1,20.07.8a4,4,0,0,1,.47-.42,1.76,1.76,0,0,1,.65-.29A3.63,3.63,0,0,1,22,0a3.72,3.72,0,0,1,.86.09,1.84,1.84,0,0,1,.65.29A3.84,3.84,0,0,1,24,.8a1.51,1.51,0,0,1,.31.58c.08.25.15.47.2.65a5.39,5.39,0,0,1,.1.78q0,.51,0,.81c0,.21,0,.5,0,.88s0,.67,0,.88,0,.47,0,.81a5.39,5.39,0,0,1-.1.78c-.05.18-.12.4-.2.65A1.51,1.51,0,0,1,24,8.2a3.84,3.84,0,0,1-.46.42,1.84,1.84,0,0,1-.65.29A3.72,3.72,0,0,1,22,9a3.63,3.63,0,0,1-.85-.09,1.76,1.76,0,0,1-.65-.29,4,4,0,0,1-.47-.42,1.66,1.66,0,0,1-.31-.58c-.08-.25-.14-.47-.19-.65a4.27,4.27,0,0,1-.1-.78C19.45,5.85,19.44,5.58,19.43,5.38Zm.77-1.62V5.24c0,.18,0,.4,0,.67a4.28,4.28,0,0,0,.05.62q0,.21.09.51a1.42,1.42,0,0,0,.16.47l.23.35a.84.84,0,0,0,.32.28,2,2,0,0,0,.43.15,2.23,2.23,0,0,0,.54.06,2.38,2.38,0,0,0,.55-.06A2.16,2.16,0,0,0,23,8.14a.82.82,0,0,0,.31-.28l.24-.35A1.73,1.73,0,0,0,23.72,7c0-.2.07-.37.1-.51s0-.35.05-.62,0-.49,0-.67V3.76c0-.18,0-.4,0-.67s0-.47-.05-.62-.06-.31-.1-.51a1.73,1.73,0,0,0-.15-.47l-.24-.35A.82.82,0,0,0,23,.86a2.16,2.16,0,0,0-.43-.15A2.38,2.38,0,0,0,22,.65a2.23,2.23,0,0,0-.54.06,2,2,0,0,0-.43.15.84.84,0,0,0-.32.28l-.23.35a1.42,1.42,0,0,0-.16.47q-.06.3-.09.51a4.28,4.28,0,0,0-.05.62C20.21,3.36,20.2,3.58,20.2,3.76Z"/><path class="cls-1" d="M27,8.83h-.77V.17h1.31L30.1,8h0L32.64.17h1.22V8.83H33.1V.91h0L30.53,8.83h-.89L27,.91h0Z"/><path class="cls-1" d="M36.35,8.83h-.77V.17h.77V4.06h3.41V.17h.76V8.83h-.76V4.7H36.35Z"/></g></g></g></svg>