<svg xmlns="http://www.w3.org/2000/svg" width="81.192" height="22.272" viewBox="0 0 81.192 22.272"><defs><style>.a{fill:#022873;}</style></defs><path class="a" d="M10.464-6.1q0,1.2-.108,2.34a7.19,7.19,0,0,1-.468,2.028A3.364,3.364,0,0,1,8.832-.3a3.018,3.018,0,0,1-1.9.54A3.428,3.428,0,0,1,5.244-.12a3.083,3.083,0,0,1-1.116-1.2L4.1,0H1.248q0-.048.012-.4t.024-.744q.012-.4.024-.744t.012-.4V-17.352H4.3v6.384a3.312,3.312,0,0,1,1.3-1.08,3.978,3.978,0,0,1,1.656-.336,2.962,2.962,0,0,1,1.824.492,2.889,2.889,0,0,1,.96,1.332A6.743,6.743,0,0,1,10.4-8.568Q10.464-7.416,10.464-6.1Zm-3-.168q0-.816-.036-1.572a7.1,7.1,0,0,0-.18-1.344,2.22,2.22,0,0,0-.444-.936,1.064,1.064,0,0,0-.852-.348,1.205,1.205,0,0,0-.924.372,2.305,2.305,0,0,0-.516.984A6.873,6.873,0,0,0,4.3-7.716q-.048.78-.048,1.62T4.3-4.464a7.815,7.815,0,0,0,.2,1.416A2.381,2.381,0,0,0,4.992-2.04a1.15,1.15,0,0,0,.912.384,1.014,1.014,0,0,0,.816-.372,2.572,2.572,0,0,0,.48-1,7.275,7.275,0,0,0,.216-1.464Q7.464-5.328,7.464-6.264ZM12.648,0V-17.352h2.976V0ZM20.76-5.712v1.08A5.637,5.637,0,0,0,21.1-2.364a1.214,1.214,0,0,0,1.2.708,1.3,1.3,0,0,0,.768-.2,1.434,1.434,0,0,0,.456-.54,2.248,2.248,0,0,0,.216-.756,7.5,7.5,0,0,0,.048-.852h2.832a4.832,4.832,0,0,1-1.1,3.276A4.37,4.37,0,0,1,22.3.288,5.221,5.221,0,0,1,19.812-.2a3.2,3.2,0,0,1-1.344-1.344,5.351,5.351,0,0,1-.552-1.98q-.108-1.128-.108-2.4a19.639,19.639,0,0,1,.144-2.412,5.883,5.883,0,0,1,.624-2.064,3.624,3.624,0,0,1,1.4-1.44,4.911,4.911,0,0,1,2.484-.54,4.483,4.483,0,0,1,2.436.552,3.248,3.248,0,0,1,1.248,1.476,6.328,6.328,0,0,1,.468,2.124q.072,1.2.072,2.52Zm3-1.656v-.816a5.107,5.107,0,0,0-.072-.84,2.4,2.4,0,0,0-.372-1.02,1.1,1.1,0,0,0-.972-.4,1.22,1.22,0,0,0-1.044.432,2.614,2.614,0,0,0-.444,1.152q-.048.36-.072.708t-.024.78ZM37.944-6.144q0,1.272-.1,2.436a6.838,6.838,0,0,1-.456,2.04A3.2,3.2,0,0,1,36.336-.276a3.119,3.119,0,0,1-1.9.516A3.867,3.867,0,0,1,32.9-.048a2.509,2.509,0,0,1-1.128-1.008V4.608H28.8V-9.264q0-.072-.012-.492t-.024-.924q-.012-.5-.024-.924t-.012-.492h2.9l.024,1.272a3.31,3.31,0,0,1,1.356-1.188,3.929,3.929,0,0,1,1.668-.372,3.073,3.073,0,0,1,1.836.48,2.856,2.856,0,0,1,.984,1.32,6.447,6.447,0,0,1,.384,1.98Q37.944-7.464,37.944-6.144Zm-3-.12q0-.864-.036-1.62a6.264,6.264,0,0,0-.192-1.332,2.137,2.137,0,0,0-.468-.912,1.091,1.091,0,0,0-.84-.336,1.146,1.146,0,0,0-.936.408,2.708,2.708,0,0,0-.5,1.068,7.3,7.3,0,0,0-.2,1.476q-.036.816-.036,1.632,0,.84.06,1.6a6.1,6.1,0,0,0,.24,1.332,2.372,2.372,0,0,0,.5.924,1.139,1.139,0,0,0,.876.348.969.969,0,0,0,.84-.456,3.307,3.307,0,0,0,.468-1.152,8.582,8.582,0,0,0,.192-1.488Q34.944-5.568,34.944-6.264Zm6.84-3.888v1.488q0,.96.012,1.488t.036,1.332a9.814,9.814,0,0,0,.1,1.236q.072.432.192,1.032a3.013,3.013,0,0,0,.312.924q.192.324.468.708a1.757,1.757,0,0,0,.636.564,4.061,4.061,0,0,0,.852.3,4.612,4.612,0,0,0,1.092.12,4.612,4.612,0,0,0,1.092-.12,4.061,4.061,0,0,0,.852-.3,1.757,1.757,0,0,0,.636-.564q.276-.384.468-.708a3.013,3.013,0,0,0,.312-.924q.12-.6.192-1.032a9.815,9.815,0,0,0,.1-1.236q.024-.8.036-1.332t.012-1.488q0-.96-.012-1.488t-.036-1.332a9.814,9.814,0,0,0-.1-1.236q-.072-.432-.192-1.032a3.013,3.013,0,0,0-.312-.924q-.192-.324-.468-.708a1.757,1.757,0,0,0-.636-.564,4.061,4.061,0,0,0-.852-.3,4.612,4.612,0,0,0-1.092-.12,4.612,4.612,0,0,0-1.092.12,4.061,4.061,0,0,0-.852.3,1.757,1.757,0,0,0-.636.564q-.276.384-.468.708a3.013,3.013,0,0,0-.312.924q-.12.6-.192,1.032a9.814,9.814,0,0,0-.1,1.236Q41.808-10.68,41.784-10.152Zm-1.536,3.24V-8.664q0-1.128.012-1.752t.072-1.62a8.746,8.746,0,0,1,.2-1.56q.144-.564.384-1.308a3.129,3.129,0,0,1,.624-1.164,6.81,6.81,0,0,1,.924-.828,3.444,3.444,0,0,1,1.3-.588,7.436,7.436,0,0,1,1.716-.18,7.436,7.436,0,0,1,1.716.18,3.444,3.444,0,0,1,1.3.588,6.81,6.81,0,0,1,.924.828A3.129,3.129,0,0,1,50.04-14.9q.24.744.384,1.308a8.745,8.745,0,0,1,.2,1.56q.06,1,.072,1.62t.012,1.752q0,1.128-.012,1.752t-.072,1.62a8.745,8.745,0,0,1-.2,1.56q-.144.564-.384,1.308a3.129,3.129,0,0,1-.624,1.164,6.81,6.81,0,0,1-.924.828,3.444,3.444,0,0,1-1.3.588,7.436,7.436,0,0,1-1.716.18,7.435,7.435,0,0,1-1.716-.18,3.444,3.444,0,0,1-1.3-.588,6.81,6.81,0,0,1-.924-.828,3.129,3.129,0,0,1-.624-1.164q-.24-.744-.384-1.308a8.746,8.746,0,0,1-.2-1.56Q40.272-6.288,40.248-6.912ZM55.392,0H53.856V-17.328h2.616L61.584-1.68h.048l5.04-15.648H69.12V0H67.584V-15.84h-.048L62.448,0H60.672L55.44-15.84h-.048Zm18.7,0H72.552V-17.328h1.536v7.776H80.9v-7.776H82.44V0H80.9V-8.256H74.088Z" transform="translate(-1.248 17.664)"/></svg>